<?xml version="1.0" standalone="no"?>
<!DOCTYPE svg PUBLIC "-//W3C//DTD SVG 1.1//EN" "http://www.w3.org/Graphics/SVG/1.1/DTD/svg11.dtd" >
<svg xmlns="http://www.w3.org/2000/svg">
<metadata>
This is a custom SVG webfont generated by Font Squirrel.
Copyright   : 251 m klein mkf   12003
</metadata>
<defs>
<font id="webfontAq3eVQD4" horiz-adv-x="1138" >
<font-face units-per-em="2048" ascent="1638" descent="-410" />
<missing-glyph horiz-adv-x="454" />
<glyph unicode=" "  horiz-adv-x="454" />
<glyph unicode="&#x09;" horiz-adv-x="454" />
<glyph unicode="&#xa0;" horiz-adv-x="454" />
<glyph unicode="!" horiz-adv-x="792" d="M313 0h164v172h-164v-172zM313 1432l25 -1086h117l24 1086h-166z" />
<glyph unicode="&#x22;" horiz-adv-x="1128" d="M360 981h127v451h-127v-451zM637 981h127v451h-127v-451z" />
<glyph unicode="#" d="M70 449h213l-64 -449h123l64 449h270l-64 -449h123l64 449h215v110h-201l45 313h209v111h-195l64 449h-123l-63 -449h-271l64 449h-123l-64 -449h-233v-111h219l-45 -313h-227v-110zM420 559l45 313h270l-45 -313h-270z" />
<glyph unicode="$" d="M174 1096q0 -162 121 -260q53 -43 111.5 -80t119.5 -70v-586h-18q-55 0 -105.5 8.5t-91.5 21.5t-72.5 29.5t-45.5 30.5l-15 -143q133 -70 334 -70h14v-159h107v172q119 27 203 98q133 115 133 277q0 152 -79 242.5t-237 168.5l-12 6l-8 4v547q100 -4 151 -18 q66 -20 99 -39l24 123q-57 27 -133 43q-33 6 -67.5 9t-73.5 5v125h-107v-131q-133 -23 -225 -98q-127 -102 -127 -256zM315 1087q0 111 82 179q53 41 129 59v-481l-72 48q-32 22 -55 40q-84 73 -84 155zM633 119v512q92 -53 133 -96q63 -63 63 -162q0 -121 -92 -197 q-43 -37 -104 -57z" />
<glyph unicode="%" horiz-adv-x="2039" d="M211 1065q0 -184 83 -282.5t243 -98.5t243.5 99.5t83.5 283.5q0 180 -84 279.5t-243 99.5q-156 0 -241 -100.5t-85 -280.5zM340 1065q0 129 50 200.5t149 71.5q98 0 147 -71.5t49 -200.5t-50 -199.5t-148 -70.5t-147.5 70.5t-49.5 199.5zM537 -45h118l846 1522h-121z M1180 367q0 -184 83 -282.5t242 -98.5q160 0 244 99t84 284q0 180 -86 279.5t-242 99.5t-240.5 -100.5t-84.5 -280.5zM1309 367q0 129 50 200.5t148 71.5t147.5 -71.5t49.5 -200.5t-50 -200t-149 -71q-98 0 -147 71t-49 200z" />
<glyph unicode="&#x26;" horiz-adv-x="1370" d="M102 365q0 -74 31 -143.5t88.5 -125t141 -88.5t192.5 -33q184 0 309 76q31 18 67 49t77 72l155 -172l176 2l-249 268q4 4 9 12.5t13 18.5q31 49 56.5 108.5t43 124t26.5 129t9 125.5h-114l-9 -87q-4 -44 -14 -90t-26.5 -97t-43.5 -113q-14 -25 -30 -45l-385 416 q53 20 107 52t112 73q129 94 129 272q0 68 -27.5 121t-75 90t-109 56.5t-128.5 19.5q-78 0 -146.5 -23.5t-121 -64.5t-82 -98.5t-29.5 -124.5q0 -49 16.5 -97.5t43 -92.5t59.5 -85t63 -73l4 -6q-170 -61 -252 -160q-86 -102 -86 -266zM244 387q0 102 78 193q74 86 192 131 l414 -453q-27 -27 -51.5 -47.5t-47.5 -36.5q-119 -88 -272 -88q-61 0 -118.5 22.5t-100.5 62.5t-68.5 95t-25.5 121zM393 1139q0 49 18.5 87t50.5 64.5t71.5 41t82.5 14.5q98 0 155.5 -49.5t57.5 -153.5q0 -115 -81 -185q-74 -63 -191 -114l-2 2q-78 78 -120 144.5 t-42 148.5z" />
<glyph unicode="'" horiz-adv-x="565" d="M219 981h127v451h-127v-451z" />
<glyph unicode="(" horiz-adv-x="573" d="M88 631q0 -137 38 -275.5t93 -261.5t116.5 -222t108.5 -161l84 2q-31 49 -84 148.5t-103 226.5t-88 268.5t-38 274.5q0 88 17.5 181t45 184t63.5 176t70.5 158t65.5 128l51 88l-84 2q-47 -61 -108.5 -161.5t-116.5 -223.5t-93 -260t-38 -272z" />
<glyph unicode=")" horiz-adv-x="573" d="M43 -287l84 -2q45 61 106.5 160.5t117 222.5t94 261.5t38.5 275.5q0 135 -38.5 272t-94 260t-117 223.5t-106.5 161.5l-84 -2l51 -88t66 -128t70.5 -158t63.5 -176t45 -184t17 -181q0 -133 -37.5 -274.5t-88 -268.5t-103.5 -226.5t-84 -148.5z" />
<glyph unicode="*" horiz-adv-x="1132" d="M190 991l289 8l-153 -245l106 -60l135 254l135 -254l107 60l-154 245l289 -8v119l-289 -10l154 248l-107 59l-135 -254l-135 254l-106 -59l153 -248l-289 10v-119z" />
<glyph unicode="+" horiz-adv-x="1228" d="M94 455h451v-451h139v451h449v139h-449v444h-139v-444h-451v-139z" />
<glyph unicode="," horiz-adv-x="569" d="M111 -272h127l163 446h-174z" />
<glyph unicode="-" horiz-adv-x="681" d="M14 481h512v142h-512v-142z" />
<glyph unicode="." horiz-adv-x="569" d="M20 0h168v172h-168v-172z" />
<glyph unicode="/" horiz-adv-x="575" d="M-59 -29h141l553 1485h-141z" />
<glyph unicode="0" d="M100 711q0 -170 29 -304.5t87 -228.5t146.5 -143t204.5 -49q117 0 205 49t146.5 143t88 228.5t29.5 304.5v8q0 172 -29.5 306t-88 228.5t-145.5 143.5t-204 49t-205 -49t-146 -143.5t-88 -228.5t-30 -306v-8zM242 711v8q0 289 76.5 446.5t248.5 157.5t250 -157.5 t78 -446.5v-8q0 -287 -78 -444.5t-248 -157.5q-174 0 -250.5 156.5t-76.5 445.5z" />
<glyph unicode="1" d="M252 1167l78 -94l231 199v-1272h144l-3 1432h-124z" />
<glyph unicode="2" d="M100 0h863v123h-687l392 432l71 87q45 56 88 128t74 153t31 158q0 82 -30 149.5t-84 116t-131 74t-171 25.5q-55 0 -114.5 -13.5t-111.5 -31t-90 -34.5t-46 -26l26 -127q12 10 44 29t78 36t103.5 30.5t118.5 13.5q53 0 99.5 -19.5t80 -54.5t53 -81t19.5 -101 q0 -53 -20.5 -111.5t-50 -113t-63.5 -101.5t-60 -77l-237 -273l-245 -268v-123z" />
<glyph unicode="3" d="M102 51q12 -6 44 -17t77 -22.5t101.5 -18.5t121.5 -7q117 0 214.5 28.5t166 83t106.5 130t38 171.5q0 154 -81 247t-222 102q135 29 218 121t83 221q0 168 -120 262t-329 94q-61 0 -117.5 -8t-102.5 -19.5t-80 -24t-50 -20.5l16 -131q16 8 48 22.5t74 27t93.5 21.5 t106.5 9q70 0 128 -18.5t101 -49t66.5 -72.5t23.5 -91q0 -147 -117.5 -216t-332.5 -69h-68v-125h129q193 0 292 -64.5t99 -205.5t-101 -222t-273 -81q-63 0 -119.5 8t-101 20.5t-74 25.5t-41.5 21z" />
<glyph unicode="4" d="M47 328h682v-328h139v328h211v123h-211v981h-178l-643 -965v-139zM178 451l551 843v-843h-551z" />
<glyph unicode="5" d="M174 45q8 -6 35 -15.5t66.5 -19.5t92 -17t113.5 -7q121 0 217.5 31.5t164 93t104.5 149.5t37 199q0 203 -120 313.5t-331 110.5q-57 0 -111.5 -7.5t-105.5 -25.5l10 459h594v123h-733l-14 -721q63 23 142 36t171 13q356 0 356 -314q0 -160 -102.5 -248.5t-280.5 -88.5 q-55 0 -107.5 10t-94 23.5t-68.5 26.5t-33 19z" />
<glyph unicode="6" d="M111 643q0 -174 30.5 -299t91 -205t146.5 -116.5t196 -36.5q102 0 187.5 33.5t146 94t94 144.5t33.5 186q0 221 -116.5 342t-327.5 121q-115 0 -205 -51q-76 -39 -131 -129q2 240 98 399q123 199 381 199q86 0 151.5 -17.5t82.5 -25.5l12 131q-31 8 -96.5 21.5 t-143.5 11.5q-309 -10 -469.5 -207t-160.5 -596zM264 492q29 160 107 219q96 72 223 71q147 0 224 -88t77 -250q0 -74 -22.5 -136t-64.5 -106t-99.5 -68.5t-126.5 -24.5q-168 0 -244 112q-29 41 -46.5 108t-27.5 163z" />
<glyph unicode="7" d="M119 1309h733l-571 -1309h155l555 1309v123h-872v-123z" />
<glyph unicode="8" d="M94 369q0 -86 35 -156t98.5 -121t149.5 -78.5t190 -27.5q221 0 348 101t127 286q0 129 -74.5 219t-260.5 153q53 27 105 66t93 86t66.5 100.5t25.5 110.5q0 76 -29.5 138.5t-84 107.5t-130 68.5t-167.5 23.5q-98 0 -180 -24.5t-141.5 -69.5t-92.5 -108.5t-33 -139.5 q0 -49 13.5 -94t46 -90.5t87 -88.5t136.5 -86q-172 -57 -250 -146t-78 -230zM236 375q0 117 92 190.5t241 124.5q147 -57 240.5 -132t93.5 -185q0 -59 -24.5 -107.5t-68.5 -83.5t-104.5 -54t-134.5 -19q-72 0 -132 20.5t-106 55t-71.5 84t-25.5 106.5zM281 1100 q0 49 21.5 90t60 70.5t91 46t113.5 16.5t113.5 -17.5t91.5 -47t61.5 -69.5t22.5 -87q0 -59 -30.5 -107.5t-75.5 -87.5t-93.5 -66.5t-85.5 -41.5q-55 18 -107 49t-93 70.5t-65.5 86t-24.5 95.5z" />
<glyph unicode="9" d="M98 987q0 -217 117 -339t328 -122q109 0 198 47q88 47 140 136v-7q0 -233 -101 -395q-123 -201 -381 -201q-86 0 -151.5 16.5t-81.5 27.5l-12 -132q14 -4 39.5 -10t56.5 -11t67.5 -9t75.5 -2q309 10 470 206.5t161 595.5q0 174 -30.5 299t-90 205t-145.5 117t-197 37 q-102 0 -187 -34t-146.5 -94.5t-95.5 -144.5t-34 -186zM240 987q0 76 22.5 138.5t64.5 106.5t99 67.5t129 23.5q160 0 240 -115q57 -84 75 -274q-29 -150 -110 -213q-96 -72 -219 -72q-147 0 -224 89t-77 249z" />
<glyph unicode=":" horiz-adv-x="569" d="M201 0h168v172h-168v-172zM201 872h168v172h-168v-172z" />
<glyph unicode=";" horiz-adv-x="569" d="M111 -272h127l163 446h-174zM201 872h168v172h-168v-172z" />
<glyph unicode="&#x3c;" horiz-adv-x="1228" d="M96 461l1037 -471v135l-879 395l879 395v136l-1037 -471v-119z" />
<glyph unicode="=" horiz-adv-x="1228" d="M94 246h1039v139h-1039v-139zM94 655h1039v140h-1039v-140z" />
<glyph unicode="&#x3e;" horiz-adv-x="1228" d="M96 -10l1037 471v119l-1037 471v-136l879 -395l-879 -395v-135z" />
<glyph unicode="?" horiz-adv-x="1028" d="M176 1397l8 -127q20 10 54 21.5t72 20.5t77 15t74 6q129 0 199.5 -67.5t70.5 -180.5q0 -94 -38 -167.5t-87 -122.5q-111 -106 -163 -202.5t-52 -201.5v-45h129v45q0 84 42 162t138 176q27 27 56.5 61.5t55.5 78.5t42 98.5t16 119.5q0 80 -24.5 148t-73.5 117t-125 76.5 t-178 27.5q-39 0 -81 -5t-82 -14.5t-73.5 -19.5t-56.5 -20zM375 0h164v172h-164v-172z" />
<glyph unicode="@" horiz-adv-x="1640" d="M90 532q0 -147 57.5 -281t160 -235.5t244.5 -162t312 -60.5q102 0 198.5 30t177.5 78t141.5 106.5t91.5 113.5l-107 2q-31 -43 -82 -83t-119.5 -71.5t-149.5 -50t-169 -18.5q-123 0 -237.5 47t-204 130t-142.5 196.5t-53 248.5q0 133 51 248t138 200t204 134t248 49 q121 0 225.5 -40t181 -106.5t120.5 -155.5t44 -187q0 -94 -28.5 -178.5t-72.5 -148t-96.5 -101t-99.5 -37.5q-37 0 -53 24q-10 12 -10 39q0 10 1 21.5t5 23.5l197 590h-127l-50 -139q-14 49 -37.5 84t-52 56.5t-60.5 30.5t-60 9q-111 0 -199 -48t-150.5 -125t-95.5 -176.5 t-33 -199.5q0 -72 22.5 -126t60.5 -91t88.5 -56.5t103.5 -19.5q84 0 149.5 40t106.5 91q20 -82 62 -108.5t83 -26.5q82 0 164 45t148.5 122t108.5 179.5t42 216.5q0 121 -51 230.5t-142.5 192.5t-218.5 132.5t-278 49.5q-158 0 -296 -60.5t-240.5 -161t-162 -232 t-59.5 -274.5zM539 412q0 72 27.5 147.5t74.5 138t110.5 102.5t135.5 40q70 0 110.5 -63.5t40.5 -153.5q0 -53 -27.5 -126t-73.5 -138.5t-109.5 -111.5t-133.5 -46q-59 0 -107 53.5t-48 157.5z" />
<glyph unicode="A" horiz-adv-x="1333" d="M29 0h137l153 387h717l156 -387h143l-563 1432h-160zM373 510l309 788l307 -788h-616z" />
<glyph unicode="B" d="M164 0h295q262 0 404.5 102.5t142.5 305.5q0 59 -17.5 113t-55.5 99.5t-97.5 79t-141.5 52.5q150 33 208.5 111.5t58.5 207.5q0 186 -117 273.5t-346 87.5h-334v-1432zM305 123v684l4 502h201q147 0 228 -57.5t81 -174.5q0 -135 -90 -202.5t-258 -67.5h-88l2 -127l88 4 q23 1 45 1q159 0 246 -65q98 -75 98 -225q0 -135 -104.5 -203.5t-294.5 -68.5h-158z" />
<glyph unicode="C" horiz-adv-x="1372" d="M115 715q0 -170 51 -306.5t144 -232.5t226.5 -148.5t299.5 -52.5q98 0 183 16.5t152 53.5l-12 119q-53 -37 -142 -51.5t-183 -14.5q-133 0 -240 43t-182.5 124t-115.5 194.5t-40 255.5q0 141 41 254.5t116.5 194.5t182 125t238.5 44q88 0 172 -15t151 -50l14 129 q-59 27 -145 43t-197 16q-160 0 -291.5 -53t-225 -151.5t-145.5 -234.5t-52 -302z" />
<glyph unicode="D" horiz-adv-x="1370" d="M166 0h262q391 0 601 181t210 534q0 352 -180 534.5t-531 182.5h-362v-1432zM307 123v1186h199q592 0 592 -594q0 -301 -170 -446.5t-508 -145.5h-113z" />
<glyph unicode="E" horiz-adv-x="1026" d="M176 0h727v123h-586v553h533v123h-533v510h439v123h-580v-1432z" />
<glyph unicode="F" horiz-adv-x="911" d="M158 0h141v676h436l-2 123h-434v510h543v123h-684v-1432z" />
<glyph unicode="G" horiz-adv-x="1484" d="M129 715q0 -172 51 -308.5t146.5 -232.5t230.5 -147.5t305 -51.5q129 0 237.5 27t200.5 74v696h-565v-123h424v-493q-43 -27 -120.5 -42.5t-184.5 -15.5q-135 0 -242.5 43t-183.5 124t-117 194.5t-41 255.5q0 141 41 255.5t116 194.5t182.5 124t242.5 44 q98 0 194.5 -17.5t172.5 -60.5l22 125q-68 35 -169 55.5t-230 20.5q-160 0 -292 -53t-225.5 -150.5t-144.5 -234.5t-51 -303z" />
<glyph unicode="H" horiz-adv-x="1366" d="M180 0h142v676h722v-676h142v1432h-142v-633h-722v633h-142v-1432z" />
<glyph unicode="I" horiz-adv-x="454" d="M158 0h139v1432h-139v-1432z" />
<glyph unicode="J" horiz-adv-x="688" d="M29 8q2 -6 17 -12t36.5 -11t46.5 -8.5t49 -3.5q168 0 253 105.5t85 304.5v1049h-141v-1049q0 -156 -54.5 -220.5t-148.5 -64.5q-57 0 -92 11.5t-49 19.5z" />
<glyph unicode="K" horiz-adv-x="1251" d="M195 0h141v786l4 7l690 -793h193l-750 840l694 592h-188l-643 -566v566h-141v-1432z" />
<glyph unicode="L" horiz-adv-x="909" d="M162 0h715v123h-574v1309h-141v-1432z" />
<glyph unicode="M" horiz-adv-x="1822" d="M176 0h139v1305l541 -1305h125l524 1305v-1305h140v1432h-205l-514 -1239l-510 1239h-240v-1432z" />
<glyph unicode="N" horiz-adv-x="1368" d="M158 0h139v1247l727 -1247h190v1432h-139v-1268l-739 1268h-178v-1432z" />
<glyph unicode="O" horiz-adv-x="1484" d="M113 715q0 -170 44 -306.5t124.5 -232.5t198.5 -148.5t265 -52.5t265 52.5t199 148.5t125 232.5t44 306.5t-44 307t-125 233.5t-198.5 148.5t-265.5 52q-147 0 -265 -52t-198.5 -148.5t-124.5 -233.5t-44 -307zM254 715q0 135 36 248.5t100.5 195.5t154.5 128t200 46 q111 0 201 -46t154.5 -128t100.5 -195.5t36 -248.5t-36 -249t-100.5 -195t-154.5 -127t-201 -46t-200.5 46t-154 127t-100.5 195t-36 249z" />
<glyph unicode="P" horiz-adv-x="1028" d="M174 0h141v618v125v566h226q141 0 217 -70t76 -205q0 -154 -92.5 -222.5t-282.5 -68.5h-53v-127l116 2q100 2 183 31t142.5 81t92.5 126t33 164q0 197 -116 304.5t-320 107.5h-363v-1432z" />
<glyph unicode="Q" horiz-adv-x="1484" d="M113 715q0 -170 44 -306.5t124.5 -232.5t198.5 -148.5t265 -52.5q39 0 69 3.5t52 7.5l29 -28l78 -77l79 -77l78 -74l62 -57l25 -21l90 90l-40 39l-122 117q-129 125 -135 129q63 33 113.5 69.5t84.5 79.5q170 201 170 539q0 170 -44 307t-125 233.5t-198.5 148.5 t-265.5 52q-147 0 -265 -52t-198.5 -148.5t-124.5 -233.5t-44 -307zM254 715q0 135 36 248.5t100.5 195.5t154.5 128t200 46q111 0 201 -46t154.5 -128t100.5 -195.5t36 -248.5t-36 -249t-100.5 -195t-154.5 -127t-201 -46t-200.5 46t-154 127t-100.5 195t-36 249z" />
<glyph unicode="R" horiz-adv-x="1140" d="M178 0h141q0 176 -3 338t-4 320q-1 79 -0.5 159t0.5 160q1 160 7 332h175q174 0 254.5 -52.5t80.5 -185.5q0 -131 -98 -202.5t-266 -71.5h-62v-121h52q66 0 107.5 -13.5t69 -37t45 -57t34.5 -72.5l213 -496h155l-256 575q-10 23 -22.5 46.5t-32.5 43t-50 36t-75 24.5 q172 31 250 125t78 219q0 178 -109.5 270.5t-312.5 92.5h-371v-1432z" />
<glyph unicode="S" horiz-adv-x="1024" d="M119 1096q0 -80 33.5 -144.5t88 -115t123 -91t140 -75.5t123 -68t84 -67.5t48 -74.5t15.5 -89q0 -59 -23.5 -109.5t-66.5 -86.5t-102.5 -56.5t-128.5 -20.5q-55 0 -105.5 8.5t-91.5 21.5t-72.5 29.5t-46.5 30.5l-14 -143q133 -70 334 -70q96 0 179 30t144.5 82t97 123 t35.5 152q0 152 -77.5 244t-237.5 170q-170 84 -254 157t-84 154q0 111 83 178.5t214 67.5q113 0 173.5 -18.5t96.5 -38.5l25 123q-117 57 -293 57q-92 0 -173 -27.5t-140.5 -75.5t-93 -114.5t-33.5 -142.5z" />
<glyph unicode="T" horiz-adv-x="1021" d="M20 1309h422v-1309h142v1309h415v123h-979v-123z" />
<glyph unicode="U" horiz-adv-x="1366" d="M166 489q0 -117 37 -212t104.5 -162.5t163.5 -103.5t215 -36q117 0 212 36t162.5 103.5t104.5 163t37 211.5v943h-139v-938q0 -90 -27.5 -163t-77 -124t-119 -80t-155.5 -29q-174 0 -275.5 106.5t-101.5 293.5v934h-141v-943z" />
<glyph unicode="V" horiz-adv-x="1255" d="M12 1432l537 -1432h151l547 1432h-141l-479 -1289l-467 1289h-148z" />
<glyph unicode="W" horiz-adv-x="1933" d="M18 1432l410 -1432h170l373 1280l362 -1280h168l414 1432h-133l-365 -1280l-358 1280h-172l-369 -1276l-354 1276h-146z" />
<glyph unicode="X" horiz-adv-x="1251" d="M14 0h162l455 649l434 -649h174l-522 754l481 678h-158l-405 -578l-402 578h-165l479 -678z" />
<glyph unicode="Y" horiz-adv-x="1251" d="M25 1432l532 -824v-608h139v606l529 826h-154l-444 -703l-439 703h-163z" />
<glyph unicode="Z" horiz-adv-x="1024" d="M43 0h920v123h-766l741 1186v123h-877v-123h727l-745 -1186v-123z" />
<glyph unicode="[" horiz-adv-x="571" d="M143 -276q0 -8 56 -11q29 -2 61 -2h74h143v99h-135l-70 8v1624l70 8h135v98h-143q-39 0 -73 -1t-62 -3q-55 -4 -56 -8v-1812z" />
<glyph unicode="\" horiz-adv-x="583" d="M-57 1456l555 -1485h139l-555 1485h-139z" />
<glyph unicode="]" horiz-adv-x="571" d="M94 -190v-99h144h73q33 0 62 2q55 2 55 11v1812q0 4 -55 8q-29 2 -61.5 3t-73.5 1h-144v-98h137l68 -8v-1624l-68 -8h-137z" />
<glyph unicode="^" horiz-adv-x="1228" d="M100 545h148l364 743l367 -743h147l-450 887h-127z" />
<glyph unicode="_" horiz-adv-x="1024" d="M0 -358v-103h1030v103h-1030z" />
<glyph unicode="`" horiz-adv-x="460" d="M-4 1450l260 -293l94 2l-194 293z" />
<glyph unicode="a" horiz-adv-x="1024" d="M82 309q0 -147 89 -241.5t249 -94.5q92 0 182 41t160 152v-166l117 2l2 12q1 6 1 15t-1 20q-2 25 -2 55v66v614q0 184 -92.5 278.5t-272.5 94.5q-55 0 -112.5 -14.5t-105.5 -32.5t-84 -37.5t-48 -28.5l41 -86q61 41 143 65t160 24q117 0 179.5 -63.5t62.5 -201.5v-100 v-131v-98q0 -164 -77 -265.5t-229 -101.5q-117 0 -169 59.5t-52 163.5q0 123 105.5 191.5t320.5 72.5q2 0 2 17v37q0 23 -1 40l-1 17h-14q-270 0 -411.5 -97.5t-141.5 -277.5z" />
<glyph unicode="b" horiz-adv-x="1144" d="M147 0h129v172q74 -115 150 -156t178 -41t184 42t138.5 120t87 186.5t30.5 243.5q0 137 -27.5 247t-81.5 185.5t-133 116.5t-184 41q-98 0 -182 -40t-160 -156v575h-129v-1536zM276 567q0 109 21.5 197t63.5 151.5t101.5 97.5t137.5 34q147 0 225 -128t78 -352 q0 -109 -20.5 -197.5t-60.5 -151t-96 -97.5t-126 -35t-129 35t-102 98.5t-68 151t-25 196.5z" />
<glyph unicode="c" horiz-adv-x="917" d="M84 567q0 -135 36 -243.5t101.5 -186.5t159.5 -120t211 -42q104 0 165.5 24t96.5 54l-12 119q-6 -10 -26.5 -24.5t-51.5 -28t-70 -23.5t-78 -10q-90 0 -161.5 36t-122.5 100.5t-79 153.5t-28 197q0 106 28 194.5t80 150t125.5 95.5t166.5 34q33 0 66.5 -7.5t63 -16.5 t54.5 -18.5t37 -15.5l12 121q-43 16 -108.5 31.5t-143.5 15.5q-117 0 -213 -43t-164.5 -121t-106.5 -186.5t-38 -239.5z" />
<glyph unicode="d" horiz-adv-x="1144" d="M102 567q0 -137 30 -246.5t86 -186.5t138 -118t187 -41q92 0 178 41t147 156v-172h129v1536h-129v-588q-37 63 -76.5 104.5t-82.5 65t-89.5 31.5t-91.5 8q-104 0 -183 -41t-133 -116.5t-82 -185.5t-28 -247zM244 567q0 223 75.5 351.5t223.5 128.5q72 0 131 -34 t102 -97.5t66.5 -151.5t23.5 -197q0 -104 -22.5 -193t-62.5 -152.5t-98 -99.5t-128 -36q-154 0 -232.5 129t-78.5 352z" />
<glyph unicode="e" horiz-adv-x="1030" d="M84 567q0 127 33 234.5t90 186.5t137 124t174 45q215 0 327 -151q102 -139 102 -379q0 -22 -1 -45l-2 -52l-633 5l2 106h492q-4 190 -71.5 298t-190.5 108q-147 0 -238 -134q-70 -106 -84 -272v-111q10 -203 92 -315q94 -129 267 -129q43 0 90 14.5t87 34t69.5 41 t39.5 35.5l64 -88q-20 -20 -63.5 -46t-96.5 -48.5t-109.5 -38t-101.5 -15.5q-236 0 -355.5 152.5t-119.5 439.5z" />
<glyph unicode="f" horiz-adv-x="681" d="M39 1022h211v-1022h129v1022h235v111h-235v84q0 111 33.5 172t128.5 61q39 0 60.5 -7t37.5 -16l72 70q-6 2 -24.5 13.5t-45.5 21.5t-55.5 19.5t-53.5 9.5q-150 0 -216 -89.5t-66 -279.5v-59h-211v-111z" />
<glyph unicode="g" horiz-adv-x="1142" d="M100 567q0 -129 32 -233.5t90.5 -178t140 -114.5t184.5 -41q45 0 89 9t85 34t78 67t67 107v-72q0 -248 -80.5 -362.5t-271.5 -114.5q-55 0 -107.5 8.5t-95.5 20.5t-72.5 25.5t-41.5 25.5l-13 -129q14 -6 46 -17.5t76 -20.5t97.5 -16t112.5 -7q111 0 200 36.5t151.5 104.5 t95 166t32.5 221v1047h-129v-125q-41 51 -79.5 80.5t-78.5 45t-80 19.5t-83 4q-227 0 -336 -151.5t-109 -438.5zM242 567q0 111 19.5 199t57 150.5t94 96.5t130.5 34q172 0 247.5 -122t75.5 -358q0 -102 -22.5 -186t-64.5 -143.5t-101.5 -93t-132.5 -33.5q-72 0 -128.5 32.5 t-95 92t-59 143.5t-20.5 188z" />
<glyph unicode="h" horiz-adv-x="1140" d="M160 0h129v637q0 92 21.5 169t62.5 130t99 83t132 30q113 0 179.5 -89.5t66.5 -236.5v-723h129v717q0 211 -90 325.5t-264 114.5q-123 0 -206 -52t-130 -169v600h-129v-1536z" />
<glyph unicode="i" horiz-adv-x="454" d="M162 0h127v1133h-127v-1133zM162 1409h131v174h-131v-174z" />
<glyph unicode="j" horiz-adv-x="454" d="M-57 -319v-113l114 -10q125 0 179.5 76.5t54.5 232.5v1266h-129v-1235q0 -125 -25.5 -177.5t-111.5 -52.5zM162 1409h131v174h-131v-174z" />
<glyph unicode="k" horiz-adv-x="1024" d="M162 0h129v635l4 6l516 -641h174l-567 686l508 447h-166l-469 -412v815h-129v-1536z" />
<glyph unicode="l" horiz-adv-x="454" d="M162 0h127v1536h-127v-1536z" />
<glyph unicode="m" horiz-adv-x="1710" d="M160 0h129v637q0 186 75.5 299t213.5 113q104 0 162.5 -88.5t58.5 -237.5v-723h129v637q0 186 75.5 299t213.5 113q104 0 161.5 -88.5t57.5 -237.5v-723h129v717q0 211 -85 325.5t-251 114.5q-131 0 -215 -62.5t-123 -168.5q-18 117 -96 174t-183 57q-123 0 -205.5 -52 t-130.5 -169v197h-116v-1133z" />
<glyph unicode="n" horiz-adv-x="1140" d="M160 0h129v637q0 92 21.5 169t62.5 130t99 83t132 30q113 0 179.5 -89.5t66.5 -236.5v-723h129v717q0 211 -90 325.5t-264 114.5q-125 0 -212 -52t-137 -169v197h-116v-1133z" />
<glyph unicode="o" horiz-adv-x="1142" d="M82 567q0 -133 35 -241.5t98.5 -186.5t154.5 -121t201 -43q111 0 202 43t154.5 121t98.5 186.5t35 241.5q0 131 -35 241t-98.5 186.5t-154.5 119.5t-202 43t-201.5 -43t-154 -119.5t-98.5 -186.5t-35 -241zM223 567q0 104 24.5 192.5t71 152t110 99.5t142.5 36 q80 0 143.5 -36t109.5 -99.5t71 -151.5t25 -193q0 -106 -25 -195t-71 -152.5t-109.5 -98.5t-143.5 -35t-143 35t-109.5 98.5t-71 152.5t-24.5 195z" />
<glyph unicode="p" horiz-adv-x="1144" d="M147 -430h129v604q51 -109 142.5 -154t185.5 -45q104 0 186 42t138.5 119t86 186.5t29.5 244.5q0 283 -109.5 436.5t-330.5 153.5q-92 0 -178 -45t-162 -170v191h-117v-1563zM276 565v2q0 106 24 195.5t65 152t99 97.5t126 35q74 0 132 -34t98 -97.5t61.5 -151.5 t21.5 -197q0 -223 -80 -352t-233 -129q-72 0 -129.5 36t-98 99.5t-63.5 151.5t-23 192z" />
<glyph unicode="q" horiz-adv-x="1144" d="M100 567q0 -135 30 -244.5t86 -186.5t138 -119t187 -42q45 0 92 10.5t89 35t79 66.5t65 108v-625h129v1560h-131v-188q-68 125 -152.5 170t-170.5 45q-223 0 -332 -151.5t-109 -438.5zM242 567q0 223 78.5 351.5t234.5 128.5q68 0 124 -34t98 -96.5t64.5 -149.5 t22.5 -192q0 -109 -21.5 -198.5t-62.5 -154t-98 -100.5t-127 -36q-154 0 -233.5 129t-79.5 352z" />
<glyph unicode="r" horiz-adv-x="679" d="M162 0h129v559q0 104 17.5 189.5t50 145.5t80.5 94t110 34l94 -27l66 127l-148 35q-86 0 -161.5 -58.5t-120.5 -187.5v222h-117v-1133z" />
<glyph unicode="s" horiz-adv-x="796" d="M70 31q39 -23 118.5 -40.5t161.5 -17.5q86 0 154.5 23.5t118 66.5t76 103.5t26.5 134.5q0 123 -75 202t-206 138q-98 45 -164.5 97.5t-66.5 119.5q0 86 53 137.5t164 51.5q59 0 126 -15.5t112 -36.5l14 109q-16 8 -46 17t-67 17.5t-75.5 13.5t-71.5 5q-74 0 -136.5 -20.5 t-106.5 -58.5t-69.5 -94t-25.5 -128q0 -68 26.5 -118t67.5 -87t90 -63l94 -49q45 -23 86 -46.5t72 -52t48.5 -66.5t17.5 -87q0 -43 -18.5 -80t-51.5 -63.5t-75 -42t-91 -15.5q-43 0 -87 8t-81 19.5t-63.5 24t-34.5 20.5z" />
<glyph unicode="t" horiz-adv-x="681" d="M41 1022h205v-739q0 -166 50 -237t181 -71q53 0 98.5 11.5t57.5 17.5l-4 105q-16 -6 -44 -15.5t-73 -9.5q-63 0 -100 41t-37 117v780h239v111h-239v299l-129 -46v-253h-205v-111z" />
<glyph unicode="u" horiz-adv-x="1140" d="M160 428q0 -223 89 -338t275 -115q123 0 209 56.5t129 161.5l2 -193h115v1133h-129v-656q0 -86 -21.5 -158.5t-62.5 -124t-98.5 -80t-126.5 -28.5q-123 0 -187.5 90t-64.5 252v705h-129v-705z" />
<glyph unicode="v" horiz-adv-x="913" d="M20 1133l355 -1133h153l371 1133h-137l-307 -994l-295 994h-140z" />
<glyph unicode="w" horiz-adv-x="1595" d="M12 1133l340 -1133h158l283 995l284 -995h156l348 1133h-129l-295 -1000l-274 997h-160v-10l-289 -985l-282 998h-140z" />
<glyph unicode="x" horiz-adv-x="911" d="M14 0h152l293 494l274 -494h160l-358 598l323 535h-147l-252 -433l-248 433h-160l332 -535z" />
<glyph unicode="y" horiz-adv-x="913" d="M12 1133l371 -1121l-39 -149q-25 -94 -68 -145.5t-108 -51.5l-94 17l-11 -109q16 -4 52.5 -10t85.5 -6t91 25.5t74.5 66.5t57.5 92t43 104l426 1287h-139l-308 -951l-296 951h-138z" />
<glyph unicode="z" horiz-adv-x="909" d="M66 0h778v111h-629l627 911v111h-752v-111h604l-628 -911v-111z" />
<glyph unicode="{" horiz-adv-x="571" d="M80 580q86 -10 123 -78t37 -197v-315q0 -61 10 -112.5t38.5 -88.5t77 -57.5t126.5 -20.5h71v99h-112q-29 0 -55.5 45t-26.5 137v313q0 76 -11.5 128t-34 89t-55 61.5t-75.5 47.5q43 20 75.5 45.5t55 61.5t34 88.5t11.5 127.5v314q0 92 26.5 137t55.5 45h112v98h-71 q-78 0 -126.5 -20.5t-77 -57t-38.5 -88t-10 -112.5v-316q0 -129 -37 -196.5t-123 -77.5v-100z" />
<glyph unicode="|" horiz-adv-x="473" d="M166 -29h141v1565h-141v-1565z" />
<glyph unicode="}" horiz-adv-x="571" d="M10 -190v-99h72q76 0 125 20.5t76.5 57.5t38 88t10.5 113v315q0 129 35.5 196.5t121.5 78.5v100q-86 10 -121.5 77.5t-35.5 196.5v316q0 61 -10.5 112.5t-38 88t-76.5 57t-125 20.5h-72v-98h113q29 0 54.5 -45t25.5 -137v-314q0 -76 12 -128t34.5 -88t54.5 -61.5 t73 -45.5q-41 -23 -73 -47.5t-54.5 -61.5t-34.5 -89t-12 -128v-313q0 -92 -25.5 -137t-54.5 -45h-113z" />
<glyph unicode="~" horiz-adv-x="1228" d="M141 477l76 -100q29 57 77 102t103 45t199 -75q143 -74 231 -74q92 0 160 55t103 133l-78 101q-31 -57 -77 -102.5t-104 -45.5q-57 0 -200 74q-143 76 -228 76q-94 0 -161.5 -55.5t-100.5 -133.5z" />
<glyph unicode="&#xa1;" horiz-adv-x="792" d="M313 -385h166l-24 1085h-117zM315 874h164v173h-164v-173z" />
<glyph unicode="&#xa2;" d="M201 571q0 -266 137 -428q41 -47 106 -92l-69 -231h98l57 190q68 -29 179 -28q104 0 165.5 23.5t96.5 53.5l-13 119q-6 -10 -26.5 -24.5t-51 -27.5t-69.5 -23.5t-78 -10.5q-104 0 -166 37l277 905q8 -2 14 -4l12 -4q33 -10 56 -19l37 -16l12 121q-20 8 -45 14.5l-53 14.5 l49 157h-99l-43 -141q-14 2 -30 2h-31q-117 0 -213 -43t-165 -120.5t-106.5 -186.5t-37.5 -238zM342 578q0 106 27.5 193t80 148.5t126 95.5t165.5 34h11l-265 -865q-12 10 -21 20.5l-17 20.5q-107 134 -107 353z" />
<glyph unicode="&#xa3;" d="M135 0h522l338 10l-2 119l-506 -6v590h342v108h-344v107q0 213 77 304t224 91q68 0 119 -13.5t99 -39.5l20 125q-39 25 -102.5 38t-141.5 13q-111 0 -192.5 -36t-136 -100.5t-81 -154.5t-26.5 -199v-135h-186v-108h188v-590h-211v-123z" />
<glyph unicode="&#xa5;" d="M39 1432l401 -709h-237v-98h293l4 -9v-157h-297v-99h297v-360h141v360h295v99h-295v153l6 13h289v98h-234l400 709h-148l-385 -691l-374 691h-156z" />
<glyph unicode="&#xa6;" horiz-adv-x="473" d="M166 -29h141v551h-141v-551zM166 985h141v551h-141v-551z" />
<glyph unicode="&#xa7;" horiz-adv-x="1140" d="M184 608q0 -98 52.5 -162.5t171.5 -117.5l237 -105q63 -29 108.5 -76t45.5 -112q0 -45 -25.5 -78t-67.5 -53.5t-95.5 -29.5t-108.5 -9q-72 0 -154 15.5t-139 41.5l-12 -119q49 -18 133 -33.5t194 -15.5q86 0 162 21.5t132 61.5t89 97.5t33 128.5q0 76 -47 134.5 t-123 95.5q98 86 140 161.5t42 147.5q0 98 -52 162.5t-171 118.5l-237 104q-66 29 -110 76t-44 113q0 45 22.5 77.5t58.5 53t83 30t96 9.5q57 0 128 -15.5t128 -42.5l12 119q-45 18 -121.5 33.5t-175.5 15.5q-78 0 -145.5 -21.5t-118.5 -61.5t-79.5 -97t-28.5 -129 q0 -76 47 -134.5t123 -94.5q-98 -86 -140.5 -162t-42.5 -148zM315 633q0 27 10.5 60.5t30 65.5t47 60.5t60.5 46.5l225 -102q74 -43 103.5 -82t29.5 -102q0 -29 -10 -62t-29.5 -65.5t-47 -61.5t-60.5 -47l-225 105q-78 35 -106 78t-28 106z" />
<glyph unicode="&#xa8;" horiz-adv-x="460" d="M-23 1223h152v172h-152v-172zM328 1223h151v172h-151v-172z" />
<glyph unicode="&#xa9;" horiz-adv-x="1636" d="M78 715q0 -154 58.5 -288t157.5 -234.5t234.5 -159t288.5 -58.5q154 0 288 58.5t233.5 159t157.5 234.5t58 288t-58 288t-157.5 234t-234.5 158.5t-289 58.5t-288 -58.5t-233 -158.5t-157.5 -234t-58.5 -288zM217 715q0 129 47 243.5t128 200.5t190.5 135t234.5 49 q123 0 232.5 -49t190.5 -135t128 -200.5t47 -245.5q0 -129 -47 -244t-128 -201t-190.5 -135t-234.5 -49q-123 0 -232.5 49t-190.5 135t-128 201t-47 246zM401 715q0 -102 34 -187.5t92.5 -145.5t139.5 -94t177 -34q63 0 122.5 21.5t107.5 61.5t83 99.5t51 136.5h-121 q-18 -94 -80.5 -151t-162.5 -57q-72 0 -127 28.5t-94 76.5t-59.5 111.5t-20.5 135.5q0 74 19.5 137.5t56 111.5t91 74.5t126.5 26.5q51 0 96 -17.5t77.5 -45t52 -63.5t23.5 -73h117q-10 80 -42 137.5t-80 96.5t-108.5 57.5t-127.5 18.5q-104 0 -186.5 -34t-138.5 -95.5 t-87 -146.5t-31 -187z" />
<glyph unicode="&#xaa;" horiz-adv-x="667" d="M45 995q0 -92 59.5 -147t169.5 -55q61 0 124 24.5t110 91.5v-100l88 2l-8 100v369q0 223 -248 223q-76 0 -135.5 -17.5t-75.5 -27.5v-74q41 25 97.5 39.5t109.5 14.5q78 0 121 -39t43 -121v-59h-78q-184 0 -280.5 -59t-96.5 -165zM141 995q0 74 72 115t219 43 q14 0 25.5 -1t21.5 -3q20 -2 21 -10v-58q0 -98 -51.5 -159.5t-155.5 -61.5q-80 0 -116 37t-36 98z" />
<glyph unicode="&#xab;" horiz-adv-x="1132" d="M186 553l285 -420l123 2l-272 418l272 418l-123 2l-278 -410zM543 553l284 -420l123 2l-272 418l272 418l-123 2l-278 -410z" />
<glyph unicode="&#xac;" horiz-adv-x="1228" d="M94 657h897v-413h142v555h-7l-206 229h159v8h-170l-10 13l207 206h-68l-190 -192v356h-53v-383l-76 248h-35l-63 -221l-64 221h-35l-76 -248h-114v-8h463v-229h-701v-142zM475 1036l66 219l59 -219h-125zM637 1036l63 219l64 -219h-127zM848 799v229h4l203 -229h-207z " />
<glyph unicode="&#xad;" horiz-adv-x="681" d="M14 481h512v142h-512v-142z" />
<glyph unicode="&#xae;" horiz-adv-x="1636" d="M78 715q0 -154 58.5 -288t157.5 -234.5t234.5 -159t288.5 -58.5q154 0 288 58.5t233.5 159t157.5 234.5t58 288t-58 288t-157.5 234t-234.5 158.5t-289 58.5t-288 -58.5t-233 -158.5t-157.5 -234t-58.5 -288zM217 715q0 129 47 243.5t128 200.5t190.5 135t234.5 49 q123 0 232.5 -49t190.5 -135t128 -200.5t47 -245.5q0 -129 -47 -244t-128 -201t-190.5 -135t-234.5 -49q-123 0 -232.5 49t-190.5 135t-128 201t-47 246zM535 283h141v383h121q33 -47 61 -95l57 -96l59 -97l58 -95l158 2l-250 381q123 8 174 78.5t51 175.5q0 45 -16 87 t-51 73.5t-87.5 50t-121.5 18.5h-354v-866zM676 776v262h174q70 0 120 -30.5t50 -85.5q0 -70 -34 -108t-132 -38h-178z" />
<glyph unicode="&#xaf;" horiz-adv-x="464" d="M-20 1247h503v111h-503v-111z" />
<glyph unicode="&#xb0;" horiz-adv-x="819" d="M86 1139q0 -68 25.5 -126.5t69.5 -102.5t102.5 -69.5t126.5 -25.5t126 25.5t102 69.5t69.5 102.5t25.5 126.5t-25.5 126t-69.5 102t-102.5 69.5t-125.5 25.5q-68 0 -126.5 -25.5t-102.5 -69.5t-69.5 -102t-25.5 -126zM193 1139q0 92 62 154.5t155 62.5q92 0 154.5 -62.5 t62.5 -154.5t-62.5 -154.5t-154.5 -62.5t-154.5 62.5t-62.5 154.5z" />
<glyph unicode="&#xb1;" horiz-adv-x="1228" d="M94 0h1039v143h-1039v-143zM94 549h449v-346h143v346h447v143h-447v346h-143v-346h-449v-143z" />
<glyph unicode="&#xb2;" horiz-adv-x="737" d="M78 569h569v76h-452l258 262q18 18 47.5 53t57.5 79t48.5 93.5t20.5 96.5q0 100 -75 161.5t-200 61.5q-37 0 -75.5 -8t-73.5 -19.5t-58.5 -21.5t-29.5 -14l16 -78q8 6 29.5 17t52.5 21.5t67.5 18.5t77.5 8q70 0 118 -45t48 -110q0 -33 -13 -69t-32.5 -68.5t-42 -61.5 t-41.5 -47l-317 -330v-76z" />
<glyph unicode="&#xb3;" horiz-adv-x="737" d="M55 600q18 -8 80 -23.5t148 -15.5q156 0 251 67.5t95 184.5q0 94 -53.5 150.5t-147.5 62.5q88 16 143.5 73.5t55.5 135.5q0 104 -80 160.5t-215 56.5q-82 0 -146.5 -17.5t-85.5 -27.5l11 -80q23 12 81 30.5t132 18.5q92 0 151.5 -41t59.5 -100q0 -92 -79 -133t-220 -41 h-43v-76h83q129 0 194 -39t65 -125t-68 -136t-178 -50q-86 0 -146.5 18.5t-76.5 28.5z" />
<glyph unicode="&#xb4;" horiz-adv-x="460" d="M106 1159l97 -2l262 293l-160 2z" />
<glyph unicode="&#xb5;" horiz-adv-x="1140" d="M49 1124h113v-1552h131v467q33 -27 94.5 -45.5t138.5 -18.5q123 0 207 56.5t125 161.5l2 -193h115v1133h-129v-240l-209 231h160v9h-170l-11 12l207 207h-67l-191 -193v357h-53v-383l-76 247h-35l-63 -221l-64 221h-34l-76 -247h-115v-9zM193 1133l65 219l59 -219h-124z M291 428v696h221v-233h53v233h4l207 -233h70v-414q0 -86 -22.5 -158.5t-62.5 -124t-96.5 -80t-123.5 -28.5q-123 0 -186.5 90t-63.5 252zM354 1133l64 219l63 -219h-127z" />
<glyph unicode="&#xb6;" horiz-adv-x="1226" d="M96 1057q0 -88 31 -162t87 -126t135 -82t173 -30v-878h129v1542h275v-1542l129 2l2 1651h-510q-102 0 -185 -26t-142.5 -75t-91.5 -118.5t-32 -155.5z" />
<glyph unicode="&#xb7;" horiz-adv-x="569" d="M201 547h168v172h-168v-172z" />
<glyph unicode="&#x2219;" horiz-adv-x="569" d="M201 547h168v172h-168v-172z" />
<glyph unicode="&#xb8;" horiz-adv-x="458" d="M18 -334q35 -16 89.5 -31.5t123.5 -15.5q104 0 159.5 37t55.5 113q0 53 -43 90t-102 37l-72 -9l47 138h-55l-65 -199l80 8q37 0 59 -19.5t22 -54.5q0 -37 -27.5 -58t-72.5 -21q-31 0 -61.5 8t-56 18t-43 19.5t-23.5 13.5z" />
<glyph unicode="&#xb9;" horiz-adv-x="737" d="M164 1282l51 -57l154 121v-777h94l-2 873h-82z" />
<glyph unicode="&#xba;" horiz-adv-x="739" d="M43 1149q0 -80 23.5 -145.5t67.5 -111.5t105.5 -71.5t137.5 -25.5t137 25.5t104.5 71.5t67 111.5t23.5 145.5t-23.5 145.5t-67 111.5t-104.5 71.5t-137 25.5t-137.5 -25.5t-105.5 -71.5t-67.5 -111.5t-23.5 -145.5zM139 1149q0 129 63.5 209t174.5 80q106 0 170.5 -80 t64.5 -209t-64.5 -209t-170.5 -80q-111 0 -174.5 80t-63.5 209z" />
<glyph unicode="&#xbb;" horiz-adv-x="1132" d="M186 135l121 -2l279 410l6 10l-285 420l-121 -2l271 -418zM543 135l121 -2l278 410l6 10l-284 420l-121 -2l270 -418z" />
<glyph unicode="&#xbc;" horiz-adv-x="1708" d="M154 1282l51 -57l153 121v-777h95l-2 873h-82zM315 -45h115l840 1522h-115zM885 201h450v-201h92v201h140v73h-140v598h-118l-424 -587v-84zM971 274l364 517v-517h-364z" />
<glyph unicode="&#xbd;" horiz-adv-x="1708" d="M131 1282l51 -57l154 121v-777h94l-2 873h-82zM266 -45h115l840 1522h-115zM1024 0h569v76h-452l258 262q18 18 48 53t57.5 79t48 93t20.5 96q0 100 -75 162t-200 62q-37 0 -75.5 -8.5t-73.5 -19.5t-58.5 -21.5t-29.5 -14.5l16 -78q8 6 29.5 17.5t52.5 22t68 18.5t78 8 q70 0 117.5 -45t47.5 -111q0 -33 -13 -68.5t-32.5 -68.5t-42 -61.5t-41.5 -46.5l-317 -330v-76z" />
<glyph unicode="&#xbe;" horiz-adv-x="1708" d="M113 600q18 -8 79.5 -23.5t147.5 -15.5q156 0 251 67.5t95 184.5q0 94 -53 150.5t-148 62.5q88 16 143.5 73.5t55.5 135.5q0 104 -80 160.5t-215 56.5q-82 0 -146.5 -17.5t-84.5 -27.5l10 -80q23 12 81 30.5t132 18.5q92 0 151.5 -41t59.5 -100q0 -92 -79 -133t-220 -41 h-43v-76h84q129 0 193.5 -39t64.5 -125t-67.5 -136t-178.5 -50q-86 0 -146.5 18.5t-76.5 28.5zM459 -45h114l840 1522h-115zM948 201h451v-201h92v201h139v73h-139v598h-119l-424 -587v-84zM1034 274l365 517v-517h-365z" />
<glyph unicode="&#xbf;" horiz-adv-x="1028" d="M156 -39q0 -80 23.5 -147.5t72.5 -116.5t125 -77t180 -28q37 0 79 5.5t82 14.5t74.5 19.5t57.5 20.5l-8 127q-23 -10 -55.5 -21.5t-70.5 -20.5t-78 -15.5t-75 -6.5q-129 0 -198.5 67.5t-69.5 180.5q0 94 37 168t88 123q109 106 161 202.5t52 200.5v45h-129v-45 q0 -84 -41 -161.5t-137 -176.5q-27 -27 -56.5 -61.5t-55.5 -78.5t-42 -98t-16 -120zM485 877h164v172h-164v-172z" />
<glyph unicode="&#xc0;" horiz-adv-x="1368" d="M29 0h137l153 387h717l156 -387h143l-563 1432h-160zM373 510l309 788l307 -788h-616zM449 1784l260 -293l94 2l-195 293z" />
<glyph unicode="&#xc1;" horiz-adv-x="1368" d="M29 0h137l153 387h717l156 -387h143l-563 1432h-160zM373 510l309 788l307 -788h-616zM559 1493l96 -2l263 293l-160 2z" />
<glyph unicode="&#xc2;" horiz-adv-x="1368" d="M29 0h137l153 387h717l156 -387h143l-563 1432h-160zM373 510l309 788l307 -788h-616zM410 1491h92l184 207l182 -207h93l-193 295h-164z" />
<glyph unicode="&#xc3;" horiz-adv-x="1368" d="M29 0h137l153 387h717l156 -387h143l-563 1432h-160zM373 510l309 788l307 -788h-616zM408 1540l71 -2q20 45 38 59.5t50 14.5q45 0 113 -29q66 -27 121 -27q66 0 107.5 53.5t58.5 129.5l-72 2q-20 -45 -37.5 -59.5t-52.5 -14.5q-47 0 -113 27q-70 29 -119 28 q-66 0 -107.5 -53t-57.5 -129z" />
<glyph unicode="&#xc4;" horiz-adv-x="1368" d="M29 0h137l153 387h717l156 -387h143l-563 1432h-160zM373 510l309 788l307 -788h-616zM432 1556h152v173h-152v-173zM782 1556h152v173h-152v-173z" />
<glyph unicode="&#xc5;" horiz-adv-x="1368" d="M29 0h137l153 387h717l156 -387h143l-563 1432h-160zM373 510l309 788l307 -788h-616zM489 1677q0 -82 57.5 -139t139.5 -57q39 0 75 15t62.5 42t42 62.5t15.5 76.5t-15.5 77t-42 62.5t-62.5 42t-75 15.5q-82 0 -139.5 -57.5t-57.5 -139.5zM565 1677q0 51 35 86t86 35 q49 0 84 -34.5t35 -86.5q0 -51 -35 -86t-84 -35q-51 0 -86 35t-35 86z" />
<glyph unicode="&#xc6;" horiz-adv-x="1824" d="M-4 0h160l239 385h582v-385h719v123h-578v553h524v123h-524v510h430v123h-655l-887 -1420zM469 508l508 811v-811h-508z" />
<glyph unicode="&#xc7;" horiz-adv-x="1372" d="M115 715q0 -158 45 -288t128 -225.5t201.5 -152.5t266.5 -69l-51 -154l79 8q37 0 59.5 -19.5t22.5 -54.5q0 -37 -27.5 -58t-72.5 -21q-31 0 -61.5 8t-56 18t-43 19.5t-23.5 13.5l-15 -74q35 -16 89.5 -31.5t123.5 -15.5q104 0 159.5 37t55.5 113q0 53 -43 90t-102 37 l-72 -9l31 88h27q98 0 183 16.5t152 53.5l-12 119q-53 -37 -142 -51.5t-183 -14.5q-133 0 -240 43t-182.5 124t-115.5 194.5t-40 255.5q0 141 41 254.5t116.5 194.5t182 125t238.5 44q88 0 172 -15t151 -50l14 129q-59 27 -145 43t-197 16q-160 0 -291.5 -53t-225 -151.5 t-145.5 -234.5t-52 -302z" />
<glyph unicode="&#xc8;" horiz-adv-x="1026" d="M176 0h727v123h-586v553h533v123h-533v510h439v123h-580v-1432zM276 1784l261 -293l94 2l-195 293z" />
<glyph unicode="&#xc9;" horiz-adv-x="1026" d="M176 0h727v123h-586v553h533v123h-533v510h439v123h-580v-1432zM387 1493l96 -2l262 293l-159 2z" />
<glyph unicode="&#xca;" horiz-adv-x="1026" d="M176 0h727v123h-586v553h533v123h-533v510h439v123h-580v-1432zM238 1491h92l184 207l182 -207h92l-192 295h-164z" />
<glyph unicode="&#xcb;" horiz-adv-x="1026" d="M176 0h727v123h-586v553h533v123h-533v510h439v123h-580v-1432zM260 1556h152v173h-152v-173zM610 1556h152v173h-152v-173z" />
<glyph unicode="&#xcc;" horiz-adv-x="454" d="M-10 1784l260 -293l94 2l-194 293zM158 0h139v1432h-139v-1432z" />
<glyph unicode="&#xcd;" horiz-adv-x="454" d="M100 1493l97 -2l262 293l-160 2zM158 0h139v1432h-139v-1432z" />
<glyph unicode="&#xce;" horiz-adv-x="454" d="M-49 1491h92l184 207l183 -207h92l-193 295h-164zM158 0h139v1432h-139v-1432z" />
<glyph unicode="&#xcf;" horiz-adv-x="454" d="M-27 1556h152v173h-152v-173zM158 0h139v1432h-139v-1432zM324 1556h151v173h-151v-173z" />
<glyph unicode="&#xd0;" horiz-adv-x="1370" d="M25 674h141v-674h262q391 0 601 181t210 534q0 352 -180 532t-531 185l-362 4v-639h-141v-123zM307 123v551h436v123h-436v512h199q592 0 592 -594q0 -301 -170 -446.5t-508 -145.5h-113z" />
<glyph unicode="&#xd1;" horiz-adv-x="1368" d="M158 0h139v1247l727 -1247h190v1432h-139v-1268l-739 1268h-178v-1432zM403 1540l72 -2q20 45 37.5 59.5t50.5 14.5q45 0 113 -29q66 -27 121 -27q66 0 107.5 53.5t58.5 129.5l-72 2q-20 -45 -37.5 -59.5t-52.5 -14.5q-47 0 -113 27q-70 29 -119 28q-66 0 -108 -53 t-58 -129z" />
<glyph unicode="&#xd2;" horiz-adv-x="1484" d="M113 715q0 -170 44 -306.5t124.5 -232.5t198.5 -148.5t265 -52.5t265 52.5t199 148.5t125 232.5t44 306.5t-44 307t-125 233.5t-198.5 148.5t-265.5 52q-147 0 -265 -52t-198.5 -148.5t-124.5 -233.5t-44 -307zM254 715q0 135 36 248.5t100.5 195.5t154.5 128t200 46 q111 0 201 -46t154.5 -128t100.5 -195.5t36 -248.5t-36 -249t-100.5 -195t-154.5 -127t-201 -46t-200.5 46t-154 127t-100.5 195t-36 249zM506 1784l260 -293l94 2l-194 293z" />
<glyph unicode="&#xd3;" horiz-adv-x="1484" d="M113 715q0 -170 44 -306.5t124.5 -232.5t198.5 -148.5t265 -52.5t265 52.5t199 148.5t125 232.5t44 306.5t-44 307t-125 233.5t-198.5 148.5t-265.5 52q-147 0 -265 -52t-198.5 -148.5t-124.5 -233.5t-44 -307zM254 715q0 135 36 248.5t100.5 195.5t154.5 128t200 46 q111 0 201 -46t154.5 -128t100.5 -195.5t36 -248.5t-36 -249t-100.5 -195t-154.5 -127t-201 -46t-200.5 46t-154 127t-100.5 195t-36 249zM616 1493l97 -2l262 293l-160 2z" />
<glyph unicode="&#xd4;" horiz-adv-x="1484" d="M113 715q0 -170 44 -306.5t124.5 -232.5t198.5 -148.5t265 -52.5t265 52.5t199 148.5t125 232.5t44 306.5t-44 307t-125 233.5t-198.5 148.5t-265.5 52q-147 0 -265 -52t-198.5 -148.5t-124.5 -233.5t-44 -307zM254 715q0 135 36 248.5t100.5 195.5t154.5 128t200 46 q111 0 201 -46t154.5 -128t100.5 -195.5t36 -248.5t-36 -249t-100.5 -195t-154.5 -127t-201 -46t-200.5 46t-154 127t-100.5 195t-36 249zM467 1491h92l184 207l183 -207h92l-193 295h-163z" />
<glyph unicode="&#xd5;" horiz-adv-x="1484" d="M113 715q0 -170 44 -306.5t124.5 -232.5t198.5 -148.5t265 -52.5t265 52.5t199 148.5t125 232.5t44 306.5t-44 307t-125 233.5t-198.5 148.5t-265.5 52q-147 0 -265 -52t-198.5 -148.5t-124.5 -233.5t-44 -307zM254 715q0 135 36 248.5t100.5 195.5t154.5 128t200 46 q111 0 201 -46t154.5 -128t100.5 -195.5t36 -248.5t-36 -249t-100.5 -195t-154.5 -127t-201 -46t-200.5 46t-154 127t-100.5 195t-36 249zM465 1540l72 -2q20 45 37.5 59.5t50.5 14.5q45 0 112 -29q66 -27 121 -27q66 0 108 53.5t58 129.5l-72 2q-20 -45 -37.5 -59.5 t-52.5 -14.5q-47 0 -112 27q-70 29 -119 28q-66 0 -108 -53t-58 -129z" />
<glyph unicode="&#xd6;" horiz-adv-x="1484" d="M113 715q0 -170 44 -306.5t124.5 -232.5t198.5 -148.5t265 -52.5t265 52.5t199 148.5t125 232.5t44 306.5t-44 307t-125 233.5t-198.5 148.5t-265.5 52q-147 0 -265 -52t-198.5 -148.5t-124.5 -233.5t-44 -307zM254 715q0 135 36 248.5t100.5 195.5t154.5 128t200 46 q111 0 201 -46t154.5 -128t100.5 -195.5t36 -248.5t-36 -249t-100.5 -195t-154.5 -127t-201 -46t-200.5 46t-154 127t-100.5 195t-36 249zM489 1556h152v173h-152v-173zM840 1556h151v173h-151v-173z" />
<glyph unicode="&#xd7;" horiz-adv-x="1425" d="M143 150l103 -103l370 371l371 -371l103 103l-371 370l371 371l-3 2l21 18l-193 193l5 2l362 -21l57 60l-364 16l133 133l-8 6l-139 -139l-19 2v338l-55 -55v-313l-293 292l-43 -43l315 -315h-2l-264 143l-29 -30l131 -234l-235 131l-29 -28l142 -267l-62 -61l-272 272 l-103 -102l371 -371zM477 1036l228 -129l-101 -102zM526 713l346 348l93 -90l-349 -348zM610 1169l230 -129l-103 -102z" />
<glyph unicode="&#xd8;" horiz-adv-x="1484" d="M72 25l73 -74l166 192q160 -168 434 -168q147 0 265 52.5t199 148.5t125 232.5t44 306.5q0 311 -139 499l180 207l-73 74l-175 -201q-154 162 -426 162q-147 0 -265 -52t-198.5 -148.5t-124.5 -233.5t-44 -307q0 -309 131 -492zM254 715q0 135 36 248.5t100.5 195.5 t154.5 128t200 46q205 0 332 -147l-733 -848q-90 150 -90 377zM406 252l735 848q96 -152 96 -385q0 -135 -36 -249t-100.5 -195t-154.5 -127t-201 -46q-208 0 -339 154z" />
<glyph unicode="&#xd9;" horiz-adv-x="1366" d="M166 489q0 -117 37 -212t104.5 -162.5t163.5 -103.5t215 -36q117 0 212 36t162.5 103.5t104.5 163t37 211.5v943h-139v-938q0 -90 -27.5 -163t-77 -124t-119 -80t-155.5 -29q-174 0 -275.5 106.5t-101.5 293.5v934h-141v-943zM449 1784l260 -293l94 2l-195 293z" />
<glyph unicode="&#xda;" horiz-adv-x="1366" d="M166 489q0 -117 37 -212t104.5 -162.5t163.5 -103.5t215 -36q117 0 212 36t162.5 103.5t104.5 163t37 211.5v943h-139v-938q0 -90 -27.5 -163t-77 -124t-119 -80t-155.5 -29q-174 0 -275.5 106.5t-101.5 293.5v934h-141v-943zM559 1493l96 -2l263 293l-160 2z" />
<glyph unicode="&#xdb;" horiz-adv-x="1366" d="M166 489q0 -117 37 -212t104.5 -162.5t163.5 -103.5t215 -36q117 0 212 36t162.5 103.5t104.5 163t37 211.5v943h-139v-938q0 -90 -27.5 -163t-77 -124t-119 -80t-155.5 -29q-174 0 -275.5 106.5t-101.5 293.5v934h-141v-943zM410 1491h92l184 207l182 -207h93l-193 295 h-164z" />
<glyph unicode="&#xdc;" horiz-adv-x="1366" d="M166 489q0 -117 37 -212t104.5 -162.5t163.5 -103.5t215 -36q117 0 212 36t162.5 103.5t104.5 163t37 211.5v943h-139v-938q0 -90 -27.5 -163t-77 -124t-119 -80t-155.5 -29q-174 0 -275.5 106.5t-101.5 293.5v934h-141v-943zM432 1556h152v173h-152v-173zM782 1556h152 v173h-152v-173z" />
<glyph unicode="&#xdd;" horiz-adv-x="1251" d="M25 1432l532 -824v-608h139v606l529 826h-154l-444 -703l-439 703h-163zM502 1493l96 -2l262 293l-160 2z" />
<glyph unicode="&#xde;" horiz-adv-x="1028" d="M174 0h141v352h207q100 0 183 29t142.5 82t92.5 127t33 164q0 197 -115 304t-323 107h-220v267h-141v-1432zM315 477v565h226q141 0 217 -69.5t76 -204.5q0 -154 -92.5 -222.5t-282.5 -68.5h-144z" />
<glyph unicode="&#xdf;" d="M162 0h129v1055q0 117 22.5 193.5t61.5 121.5t89 62.5t105 17.5q49 0 93.5 -17.5t79 -52t55 -86t20.5 -118.5q0 -68 -21.5 -126.5t-61.5 -99.5t-94 -64.5t-118 -23.5h-39v-110h37q375 0 375 -310q0 -74 -19.5 -137t-58.5 -109t-95 -73t-130 -27q-53 0 -98 12.5t-70 28.5 l-8 -121q18 -8 65 -19t105 -11q111 0 194.5 35.5t141 97t87 146.5t29.5 184q0 154 -89 254t-267 118q76 16 129 52t86 84.5t47 105.5t14 119q0 172 -103 275.5t-282 103.5q-92 0 -167.5 -28t-130 -84t-84 -142t-29.5 -203v-1104z" />
<glyph unicode="&#xe0;" horiz-adv-x="1024" d="M82 309q0 -147 89 -241.5t249 -94.5q92 0 182 41t160 152v-166l117 2l2 12q2 12 0 35q-2 25 -2 55v66v614q0 184 -92.5 278.5t-272.5 94.5q-55 0 -112.5 -14.5t-105.5 -32.5t-84 -37.5t-48 -28.5l41 -86q61 41 143 65t160 24q117 0 179.5 -63.5t62.5 -201.5v-100v-131 v-98q0 -164 -77 -265.5t-229 -101.5q-117 0 -169 59.5t-52 163.5q0 123 105.5 191.5t320.5 72.5q2 0 2 17v37q0 23 -1 40l-1 17h-14q-270 0 -411.5 -97.5t-141.5 -277.5zM276 1450l261 -293l94 2l-195 293z" />
<glyph unicode="&#xe1;" horiz-adv-x="1024" d="M82 309q0 -147 89 -241.5t249 -94.5q92 0 182 41t160 152v-166l117 2l2 12q2 12 0 35q-2 25 -2 55v66v614q0 184 -92.5 278.5t-272.5 94.5q-55 0 -112.5 -14.5t-105.5 -32.5t-84 -37.5t-48 -28.5l41 -86q61 41 143 65t160 24q117 0 179.5 -63.5t62.5 -201.5v-100v-131 v-98q0 -164 -77 -265.5t-229 -101.5q-117 0 -169 59.5t-52 163.5q0 123 105.5 191.5t320.5 72.5q2 0 2 17v37q0 23 -1 40l-1 17h-14q-270 0 -411.5 -97.5t-141.5 -277.5zM387 1159l96 -2l262 293l-159 2z" />
<glyph unicode="&#xe2;" horiz-adv-x="1024" d="M82 309q0 -147 89 -241.5t249 -94.5q92 0 182 41t160 152v-166l117 2l2 12q2 12 0 35q-2 25 -2 55v66v614q0 184 -92.5 278.5t-272.5 94.5q-55 0 -112.5 -14.5t-105.5 -32.5t-84 -37.5t-48 -28.5l41 -86q61 41 143 65t160 24q117 0 179.5 -63.5t62.5 -201.5v-100v-131 v-98q0 -164 -77 -265.5t-229 -101.5q-117 0 -169 59.5t-52 163.5q0 123 105.5 191.5t320.5 72.5q2 0 2 17v37q0 23 -1 40l-1 17h-14q-270 0 -411.5 -97.5t-141.5 -277.5zM238 1157h92l184 207l182 -207h92l-192 295h-164z" />
<glyph unicode="&#xe3;" horiz-adv-x="1024" d="M82 309q0 -147 89 -241.5t249 -94.5q92 0 182 41t160 152v-166l117 2l2 12q2 12 0 35q-2 25 -2 55v66v614q0 184 -92.5 278.5t-272.5 94.5q-55 0 -112.5 -14.5t-105.5 -32.5t-84 -37.5t-48 -28.5l41 -86q61 41 143 65t160 24q117 0 179.5 -63.5t62.5 -201.5v-100v-131 v-98q0 -164 -77 -265.5t-229 -101.5q-117 0 -169 59.5t-52 163.5q0 123 105.5 191.5t320.5 72.5q2 0 2 17v37q0 23 -1 40l-1 17h-14q-270 0 -411.5 -97.5t-141.5 -277.5zM236 1206l71 -2q20 45 37.5 59.5t50.5 14.5q45 0 113 -29q66 -27 121 -26q66 0 107.5 53t58.5 129 l-72 2q-20 -45 -37.5 -59.5t-52.5 -14.5q-47 0 -113 27q-70 29 -119 29q-66 0 -107.5 -53.5t-57.5 -129.5z" />
<glyph unicode="&#xe4;" horiz-adv-x="1024" d="M82 309q0 -147 89 -241.5t249 -94.5q92 0 182 41t160 152v-166l117 2l2 12q2 12 0 35q-2 25 -2 55v66v614q0 184 -92.5 278.5t-272.5 94.5q-55 0 -112.5 -14.5t-105.5 -32.5t-84 -37.5t-48 -28.5l41 -86q61 41 143 65t160 24q117 0 179.5 -63.5t62.5 -201.5v-100v-131 v-98q0 -164 -77 -265.5t-229 -101.5q-117 0 -169 59.5t-52 163.5q0 123 105.5 191.5t320.5 72.5q2 0 2 17v37q0 23 -1 40l-1 17h-14q-270 0 -411.5 -97.5t-141.5 -277.5zM260 1223h152v172h-152v-172zM610 1223h152v172h-152v-172z" />
<glyph unicode="&#xe5;" horiz-adv-x="1024" d="M82 309q0 -147 89 -241.5t249 -94.5q92 0 182 41t160 152v-166l117 2l2 12q2 12 0 35q-2 25 -2 55v66v614q0 328 -289 369q59 25 89 72t30 108q0 41 -15.5 77t-42 62.5t-62.5 42t-75 15.5q-82 0 -139.5 -57.5t-57.5 -139.5q0 -61 32 -109t91 -73q-47 -8 -92 -22.5 t-83 -31t-64.5 -30.5t-36.5 -23l41 -86q61 41 143 65t160 24q117 0 179.5 -63.5t62.5 -201.5v-100v-131v-98q0 -164 -77 -265.5t-229 -101.5q-117 0 -169 59.5t-52 163.5q0 123 105.5 191.5t320.5 72.5q2 0 2 17v37q0 23 -1 40l-1 17h-14q-270 0 -411.5 -97.5t-141.5 -277.5 zM393 1333q0 51 35 86t86 35q49 0 84 -35t35 -86t-35 -86t-84 -35q-51 0 -86 35t-35 86z" />
<glyph unicode="&#xe6;" horiz-adv-x="1712" d="M96 309q0 -147 85 -241.5t245 -94.5q147 0 250.5 59.5t154.5 157.5q31 -59 72 -99t88 -66.5t99.5 -38t101.5 -11.5q51 0 104.5 9.5t99.5 24t84 33.5t60 40l-2 129q-10 -14 -40 -35.5t-69.5 -41t-87 -34t-92.5 -14.5q-174 0 -268 129q-82 113 -92 315h731l-2 52 q-10 270 -107.5 422.5t-302.5 152.5q-111 0 -195.5 -46t-152.5 -144q-18 41 -43.5 75.5t-65.5 60t-94.5 40t-128.5 14.5q-55 0 -105 -8t-92 -20.5t-71 -25.5t-41 -22v-123q61 41 143 65t160 24q117 0 179.5 -73t62.5 -196l1 -52q1 -52 -4 -130t-21.5 -168t-50.5 -167 t-89 -127t-141 -48q-117 4 -169 61.5t-52 161.5q0 123 99 193.5t316 70.5l1 29q1 29 1 53v29h-6q-270 0 -411.5 -97.5t-141.5 -277.5zM889 641q14 166 84 272q90 133 239 134q123 0 193 -108t74 -298h-590z" />
<glyph unicode="&#xe7;" horiz-adv-x="917" d="M84 567q0 -125 30.5 -227t88 -179t139.5 -123t184 -58l-51 -154l80 8q37 0 59.5 -19.5t22.5 -54.5q0 -37 -27.5 -58t-72.5 -21q-31 0 -62 8t-56.5 18t-43 19.5t-23.5 13.5l-14 -74q35 -16 89 -31.5t124 -15.5q104 0 159.5 37t55.5 113q0 53 -43 90t-102 37l-72 -9l31 88 h12q104 -2 165.5 23t96.5 55l-12 119q-6 -10 -26.5 -24.5t-51.5 -28t-70 -23.5t-78 -10q-90 0 -161.5 36t-122.5 100.5t-79 153.5t-28 197q0 106 28 194.5t80 150t125.5 95.5t166.5 34q33 0 66.5 -7.5t63 -16.5t54.5 -18.5t37 -15.5l12 121q-43 16 -108.5 31.5t-143.5 15.5 q-117 0 -213 -43t-164.5 -121t-106.5 -186.5t-38 -239.5z" />
<glyph unicode="&#xe8;" horiz-adv-x="1030" d="M84 567q0 -287 120 -439.5t355 -152.5q45 0 101.5 15.5t109.5 38t96 48t64 46.5l-64 88q-10 -14 -39.5 -35.5t-69.5 -41t-87 -34t-90 -14.5q-172 0 -267 129q-82 113 -92 315h723l2 52q10 272 -101.5 423.5t-326.5 151.5q-94 0 -174 -45t-137 -124t-90 -186.5t-33 -234.5 zM221 641q14 166 84 272q90 133 238 134q123 0 190.5 -108t71.5 -298h-584zM283 1450l260 -293l94 2l-195 293z" />
<glyph unicode="&#xe9;" horiz-adv-x="1030" d="M84 567q0 -287 120 -439.5t355 -152.5q45 0 101.5 15.5t109.5 38t96 48t64 46.5l-64 88q-10 -14 -39.5 -35.5t-69.5 -41t-87 -34t-90 -14.5q-172 0 -267 129q-82 113 -92 315h723l2 52q10 272 -101.5 423.5t-326.5 151.5q-94 0 -174 -45t-137 -124t-90 -186.5t-33 -234.5 zM221 641q14 166 84 272q90 133 238 134q123 0 190.5 -108t71.5 -298h-584zM393 1159l96 -2l263 293l-160 2z" />
<glyph unicode="&#xea;" horiz-adv-x="1030" d="M84 567q0 -287 120 -439.5t355 -152.5q45 0 101.5 15.5t109.5 38t96 48t64 46.5l-64 88q-10 -14 -39.5 -35.5t-69.5 -41t-87 -34t-90 -14.5q-172 0 -267 129q-82 113 -92 315h723l2 52q10 272 -101.5 423.5t-326.5 151.5q-94 0 -174 -45t-137 -124t-90 -186.5t-33 -234.5 zM221 641q14 166 84 272q90 133 238 134q123 0 190.5 -108t71.5 -298h-584zM244 1157h92l184 207l182 -207h93l-193 295h-164z" />
<glyph unicode="&#xeb;" horiz-adv-x="1030" d="M84 567q0 -287 120 -439.5t355 -152.5q45 0 101.5 15.5t109.5 38t96 48t64 46.5l-64 88q-10 -14 -39.5 -35.5t-69.5 -41t-87 -34t-90 -14.5q-172 0 -267 129q-82 113 -92 315h723l2 52q10 272 -101.5 423.5t-326.5 151.5q-94 0 -174 -45t-137 -124t-90 -186.5t-33 -234.5 zM221 641q14 166 84 272q90 133 238 134q123 0 190.5 -108t71.5 -298h-584zM266 1223h152v172h-152v-172zM616 1223h152v172h-152v-172z" />
<glyph unicode="&#xec;" horiz-adv-x="454" d="M-8 1450l260 -293l94 2l-194 293zM162 0h127v1133h-127v-1133z" />
<glyph unicode="&#xed;" horiz-adv-x="454" d="M102 1159l97 -2l262 293l-160 2zM162 0h127v1133h-127v-1133z" />
<glyph unicode="&#xee;" horiz-adv-x="454" d="M-47 1157h92l184 207l183 -207h92l-193 295h-164zM162 0h127v1133h-127v-1133z" />
<glyph unicode="&#xef;" horiz-adv-x="454" d="M-25 1223h152v172h-152v-172zM162 0h127v1133h-127v-1133zM326 1223h151v172h-151v-172z" />
<glyph unicode="&#xf0;" horiz-adv-x="1142" d="M82 561q0 -133 35 -241.5t98.5 -185.5t154.5 -119t205 -42q244 0 368 174.5t124 489.5q0 383 -188 627q-37 47 -101 104l187 115l-64 80l-213 -129q-127 94 -377 127l-26 -99q211 -35 299 -92l-217 -131l69 -82l246 152q23 -18 38 -34l25 -26q141 -154 152 -256 q-70 86 -149.5 125t-172.5 39q-113 0 -203.5 -44t-155 -123t-99.5 -188.5t-35 -240.5zM223 559q0 109 23.5 198t69.5 153.5t111 100.5t148 36q76 0 140.5 -37t111.5 -102.5t73 -154.5t26 -194q0 -98 -28 -185t-75 -151.5t-110.5 -101.5t-137.5 -37q-78 0 -142 36 t-111.5 99.5t-73 150.5t-25.5 189z" />
<glyph unicode="&#xf1;" horiz-adv-x="1140" d="M160 0h129v637q0 92 21.5 169t62.5 130t99 83t132 30q113 0 179.5 -89.5t66.5 -236.5v-723h129v717q0 211 -90 325.5t-264 114.5q-125 0 -212 -52t-137 -169v197h-116v-1133zM287 1206l71 -2q20 45 38 59.5t50 14.5q45 0 113 -29q66 -27 121 -26q66 0 107.5 53t58.5 129 l-72 2q-20 -45 -37.5 -59.5t-52.5 -14.5q-47 0 -113 27q-70 29 -118 29q-66 0 -108 -53.5t-58 -129.5z" />
<glyph unicode="&#xf2;" horiz-adv-x="1142" d="M82 567q0 -133 35 -241.5t98.5 -186.5t154.5 -121t201 -43q111 0 202 43t154.5 121t98.5 186.5t35 241.5q0 131 -35 241t-98.5 186.5t-154.5 119.5t-202 43t-201.5 -43t-154 -119.5t-98.5 -186.5t-35 -241zM223 567q0 104 24.5 192.5t71 152t110 99.5t142.5 36 q80 0 143.5 -36t109.5 -99.5t71 -151.5t25 -193q0 -106 -25 -195t-71 -152.5t-109.5 -98.5t-143.5 -35t-143 35t-109.5 98.5t-71 152.5t-24.5 195zM334 1450l260 -293l94 2l-194 293z" />
<glyph unicode="&#xf3;" horiz-adv-x="1142" d="M82 567q0 -133 35 -241.5t98.5 -186.5t154.5 -121t201 -43q111 0 202 43t154.5 121t98.5 186.5t35 241.5q0 131 -35 241t-98.5 186.5t-154.5 119.5t-202 43t-201.5 -43t-154 -119.5t-98.5 -186.5t-35 -241zM223 567q0 104 24.5 192.5t71 152t110 99.5t142.5 36 q80 0 143.5 -36t109.5 -99.5t71 -151.5t25 -193q0 -106 -25 -195t-71 -152.5t-109.5 -98.5t-143.5 -35t-143 35t-109.5 98.5t-71 152.5t-24.5 195zM444 1159l97 -2l262 293l-160 2z" />
<glyph unicode="&#xf4;" horiz-adv-x="1142" d="M82 567q0 -133 35 -241.5t98.5 -186.5t154.5 -121t201 -43q111 0 202 43t154.5 121t98.5 186.5t35 241.5q0 131 -35 241t-98.5 186.5t-154.5 119.5t-202 43t-201.5 -43t-154 -119.5t-98.5 -186.5t-35 -241zM223 567q0 104 24.5 192.5t71 152t110 99.5t142.5 36 q80 0 143.5 -36t109.5 -99.5t71 -151.5t25 -193q0 -106 -25 -195t-71 -152.5t-109.5 -98.5t-143.5 -35t-143 35t-109.5 98.5t-71 152.5t-24.5 195zM295 1157h92l184 207l183 -207h92l-193 295h-164z" />
<glyph unicode="&#xf5;" horiz-adv-x="1142" d="M82 567q0 -133 35 -241.5t98.5 -186.5t154.5 -121t201 -43q111 0 202 43t154.5 121t98.5 186.5t35 241.5q0 131 -35 241t-98.5 186.5t-154.5 119.5t-202 43t-201.5 -43t-154 -119.5t-98.5 -186.5t-35 -241zM223 567q0 104 24.5 192.5t71 152t110 99.5t142.5 36 q80 0 143.5 -36t109.5 -99.5t71 -151.5t25 -193q0 -106 -25 -195t-71 -152.5t-109.5 -98.5t-143.5 -35t-143 35t-109.5 98.5t-71 152.5t-24.5 195zM293 1206l72 -2q20 45 37.5 59.5t50.5 14.5q45 0 112 -29q66 -27 121 -26q66 0 108 53t58 129l-72 2q-20 -45 -37.5 -59.5 t-52.5 -14.5q-47 0 -112 27q-70 29 -119 29q-66 0 -108 -53.5t-58 -129.5z" />
<glyph unicode="&#xf6;" horiz-adv-x="1142" d="M82 567q0 -133 35 -241.5t98.5 -186.5t154.5 -121t201 -43q111 0 202 43t154.5 121t98.5 186.5t35 241.5q0 131 -35 241t-98.5 186.5t-154.5 119.5t-202 43t-201.5 -43t-154 -119.5t-98.5 -186.5t-35 -241zM223 567q0 104 24.5 192.5t71 152t110 99.5t142.5 36 q80 0 143.5 -36t109.5 -99.5t71 -151.5t25 -193q0 -106 -25 -195t-71 -152.5t-109.5 -98.5t-143.5 -35t-143 35t-109.5 98.5t-71 152.5t-24.5 195zM317 1223h152v172h-152v-172zM668 1223h151v172h-151v-172z" />
<glyph unicode="&#xf7;" horiz-adv-x="1228" d="M94 451h1039v139h-1039v-139zM530 29h168v172h-168v-172zM530 838h168v172h-168v-172z" />
<glyph unicode="&#xf8;" horiz-adv-x="1142" d="M43 -20l70 -64l143 178q117 -119 315 -119q111 0 202 43t154.5 121t98.5 186.5t35 241.5q0 242 -107 391l152 189l-70 65l-145 -180q-119 125 -320 125q-111 0 -201.5 -43t-154 -119.5t-98.5 -186.5t-35 -241q0 -248 111 -401zM223 567q0 104 24.5 192.5t71 152t110 99.5 t142.5 36q147 0 238 -117l-526 -654q-60 115 -60 291zM338 195l524 651q57 -106 58 -279q0 -106 -25 -195t-71 -152.5t-109.5 -98.5t-143.5 -35q-143 0 -233 109z" />
<glyph unicode="&#xf9;" horiz-adv-x="1140" d="M160 428q0 -223 89 -338t275 -115q123 0 209 56.5t129 161.5l2 -193h115v1133h-129v-656q0 -86 -21.5 -158.5t-62.5 -124t-98.5 -80t-126.5 -28.5q-123 0 -187.5 90t-64.5 252v705h-129v-705zM334 1450l260 -293l94 2l-194 293z" />
<glyph unicode="&#xfa;" horiz-adv-x="1140" d="M160 428q0 -223 89 -338t275 -115q123 0 209 56.5t129 161.5l2 -193h115v1133h-129v-656q0 -86 -21.5 -158.5t-62.5 -124t-98.5 -80t-126.5 -28.5q-123 0 -187.5 90t-64.5 252v705h-129v-705zM444 1159l97 -2l262 293l-160 2z" />
<glyph unicode="&#xfb;" horiz-adv-x="1140" d="M160 428q0 -223 89 -338t275 -115q123 0 209 56.5t129 161.5l2 -193h115v1133h-129v-656q0 -86 -21.5 -158.5t-62.5 -124t-98.5 -80t-126.5 -28.5q-123 0 -187.5 90t-64.5 252v705h-129v-705zM295 1157h92l184 207l183 -207h92l-193 295h-164z" />
<glyph unicode="&#xfc;" horiz-adv-x="1140" d="M160 428q0 -223 89 -338t275 -115q123 0 209 56.5t129 161.5l2 -193h115v1133h-129v-656q0 -86 -21.5 -158.5t-62.5 -124t-98.5 -80t-126.5 -28.5q-123 0 -187.5 90t-64.5 252v705h-129v-705zM317 1223h152v172h-152v-172zM668 1223h151v172h-151v-172z" />
<glyph unicode="&#xfd;" horiz-adv-x="913" d="M12 1133l371 -1121l-39 -149q-25 -94 -68 -145.5t-108 -51.5l-94 17l-11 -109q16 -4 52.5 -10t85.5 -6t91 25.5t74.5 66.5t57.5 92t43 104l426 1287h-139l-308 -951l-296 951h-138zM332 1159l96 -2l262 293l-160 2z" />
<glyph unicode="&#xfe;" horiz-adv-x="1144" d="M147 -430h129v604q51 -109 142.5 -154t185.5 -45q104 0 186 42t138.5 119t86 186.5t29.5 244.5q0 283 -109.5 436.5t-330.5 153.5q-88 0 -171 -45t-157 -170v594h-129v-1966zM276 565v2q0 106 24 195.5t65 152t99 97.5t126 35q74 0 132 -34t98 -97.5t61.5 -151.5 t21.5 -197q0 -223 -80 -352t-233 -129q-72 0 -129.5 36t-98 99.5t-63.5 151.5t-23 192z" />
<glyph unicode="&#xff;" horiz-adv-x="913" d="M12 1133l371 -1121l-39 -149q-25 -94 -68 -145.5t-108 -51.5l-94 17l-11 -109q16 -4 52.5 -10t85.5 -6t91 25.5t74.5 66.5t57.5 92t43 104l426 1287h-139l-308 -951l-296 951h-138zM205 1223h151v172h-151v-172zM555 1223h152v172h-152v-172z" />
<glyph unicode="&#x152;" horiz-adv-x="1832" d="M111 721q0 -172 38.5 -308.5t112.5 -231.5t182.5 -145t247.5 -50q133 0 172 8q23 4 52.5 5t70.5 1h721v123h-582v553h529v123h-529v510h557v123l-696 -7q-61 0 -128.5 10.5t-166.5 10.5q-137 0 -245.5 -51.5t-183.5 -145.5t-113.5 -228t-38.5 -300zM252 715 q0 289 117.5 447.5t351.5 158.5q53 0 101 -3t84 -8t57.5 -10.5t21.5 -11.5v-1147q0 -14 -78 -22t-188 -8q-233 0 -350 156.5t-117 447.5z" />
<glyph unicode="&#x153;" horiz-adv-x="1830" d="M74 567q0 -133 33.5 -241.5t95 -186.5t149.5 -121t199 -43q156 0 255 55.5t161 153.5q70 -111 172 -160t237 -49q43 0 88 9.5t85 24t73 33.5t51 40l-2 129q-10 -14 -39.5 -35.5t-69.5 -41t-87.5 -34t-90.5 -14.5q-172 0 -266 129q-82 113 -92 315h725v52 q0 270 -104.5 422.5t-311.5 152.5q-76 0 -134 -18.5t-103 -49t-78 -72.5t-57 -87q-47 100 -143.5 163.5t-268.5 63.5q-111 0 -199 -43t-149.5 -119.5t-95 -186.5t-33.5 -241zM215 567q0 104 24.5 192.5t68.5 152t106.5 99.5t140.5 36t140.5 -36t107.5 -99.5t68.5 -151.5 t23.5 -193q0 -106 -23.5 -195t-68.5 -152.5t-107.5 -98.5t-140.5 -35t-140.5 35t-106.5 98.5t-68.5 152.5t-24.5 195zM1026 641q14 166 84 272q90 133 238 134q123 0 191.5 -108t70.5 -298h-584z" />
<glyph unicode="&#x178;" horiz-adv-x="1251" d="M25 1432l532 -824v-608h139v606l529 826h-154l-444 -703l-439 703h-163zM375 1556h151v173h-151v-173zM725 1556h152v173h-152v-173z" />
<glyph unicode="&#x2c6;" horiz-adv-x="466" d="M-43 1157h92l184 207l183 -207h92l-193 295h-163z" />
<glyph unicode="&#x2dc;" horiz-adv-x="462" d="M-51 1206l71 -2q20 45 38 59.5t51 14.5q45 0 112 -29q66 -27 121 -26q66 0 108 53t58 129l-72 2q-20 -45 -37.5 -59.5t-52.5 -14.5q-47 0 -113 27q-70 29 -118 29q-66 0 -108 -53.5t-58 -129.5z" />
<glyph unicode="&#x2000;" horiz-adv-x="935" />
<glyph unicode="&#x2001;" horiz-adv-x="1873" />
<glyph unicode="&#x2002;" horiz-adv-x="935" />
<glyph unicode="&#x2003;" horiz-adv-x="1873" />
<glyph unicode="&#x2004;" horiz-adv-x="624" />
<glyph unicode="&#x2005;" horiz-adv-x="466" />
<glyph unicode="&#x2006;" horiz-adv-x="311" />
<glyph unicode="&#x2007;" horiz-adv-x="311" />
<glyph unicode="&#x2008;" horiz-adv-x="233" />
<glyph unicode="&#x2009;" horiz-adv-x="374" />
<glyph unicode="&#x200a;" horiz-adv-x="102" />
<glyph unicode="&#x2010;" horiz-adv-x="681" d="M14 481h512v142h-512v-142z" />
<glyph unicode="&#x2011;" horiz-adv-x="681" d="M14 481h512v142h-512v-142z" />
<glyph unicode="&#x2012;" horiz-adv-x="681" d="M14 481h512v142h-512v-142z" />
<glyph unicode="&#x2013;" horiz-adv-x="1024" d="M0 481h1026v142h-1026v-142z" />
<glyph unicode="&#x2014;" horiz-adv-x="2048" d="M0 481h2050v142h-2050v-142z" />
<glyph unicode="&#x2018;" horiz-adv-x="571" d="M152 985h153l119 438l-8 9h-113z" />
<glyph unicode="&#x2019;" horiz-adv-x="571" d="M152 985h114l158 447h-154l-118 -439v-8z" />
<glyph unicode="&#x201a;" horiz-adv-x="573" d="M152 -264v-8h114l158 446h-154z" />
<glyph unicode="&#x201c;" horiz-adv-x="1136" d="M254 985h154l118 438l-8 9h-112zM614 985h154l119 438l-8 9h-113z" />
<glyph unicode="&#x201d;" horiz-adv-x="1136" d="M254 985h115l157 447h-153l-119 -439v-8zM614 985h115l158 447h-154l-119 -439v-8z" />
<glyph unicode="&#x201e;" horiz-adv-x="1136" d="M248 -264v-8h114l158 446h-153zM604 -264v-8h115l158 446h-154z" />
<glyph unicode="&#x2022;" horiz-adv-x="1028" d="M246 754q0 -47 18.5 -89t49 -73t72.5 -49.5t89 -18.5t89 18.5t73 49.5t48 73t17 89t-17 89t-48 72.5t-73 49t-91 18.5q-47 0 -88 -18.5t-71.5 -49t-49 -72.5t-18.5 -89z" />
<glyph unicode="&#x2026;" horiz-adv-x="2048" d="M260 0h168v172h-168v-172zM942 0h168v172h-168v-172zM1624 0h168v172h-168v-172z" />
<glyph unicode="&#x202f;" horiz-adv-x="374" />
<glyph unicode="&#x2039;" horiz-adv-x="567" d="M80 553l285 -420l122 2l-272 418l272 418l-122 2l-279 -410z" />
<glyph unicode="&#x203a;" horiz-adv-x="567" d="M80 135l121 -2l278 410l6 10l-284 420l-121 -2l270 -418z" />
<glyph unicode="&#x205f;" horiz-adv-x="466" />
<glyph unicode="&#x20ac;" horiz-adv-x="1372" d="M147 516h172q27 -127 87.5 -226.5t150.5 -170t207 -107.5t256 -37q98 0 183 16.5t153 53.5l-13 119q-53 -37 -142 -51.5t-183 -14.5q-217 0 -360.5 110.5t-192.5 307.5h760v117h-781q-2 20 -3 39.5t-1 42.5q0 78 13 149h772v119h-740q63 166 200.5 258t332.5 92 q88 0 172 -15t151 -50l15 129q-59 27 -145.5 43t-196.5 16q-252 0 -428 -127t-248 -346h-191v-119h164q-12 -72 -12 -149q0 -20 1 -41t3 -41h-156v-117z" />
<glyph unicode="&#x2122;" horiz-adv-x="2027" d="M129 1333h266v-751h131v751h269v99h-666v-99zM973 582h131v741l282 -741h91l286 741v-741h131v850h-213l-247 -658l-250 658h-211v-850z" />
<glyph unicode="&#xfb01;" horiz-adv-x="1136" d="M844 0h127v1133h-127v-1133zM844 1409h131v174h-131v-174zM39 1022h211v-1022h129v1022h235v111h-235v84q0 111 33.5 172t128.5 61q39 0 60.5 -7t37.5 -16l72 70q-6 2 -24.5 13.5t-45.5 21.5t-55.5 19.5t-53.5 9.5q-150 0 -216 -89.5t-66 -279.5v-59h-211v-111z" />
<glyph unicode="&#xfb02;" horiz-adv-x="1136" d="M844 0h127v1536h-127v-1536zM39 1022h211v-1022h129v1022h235v111h-235v84q0 111 33.5 172t128.5 61q39 0 60.5 -7t37.5 -16l72 70q-6 2 -24.5 13.5t-45.5 21.5t-55.5 19.5t-53.5 9.5q-150 0 -216 -89.5t-66 -279.5v-59h-211v-111z" />
<glyph unicode="&#xfb03;" horiz-adv-x="1818" d="M1526 0h127v1133h-127v-1133zM1526 1409h131v174h-131v-174zM721 1022h211v-1022h129v1022h235v111h-235v84q0 111 33.5 172t128.5 61q39 0 60.5 -7t37.5 -16l72 70q-6 2 -24.5 13.5t-45.5 21.5t-55.5 19.5t-53.5 9.5q-150 0 -216 -89.5t-66 -279.5v-59h-211v-111z M39 1022h211v-1022h129v1022h235v111h-235v84q0 111 33.5 172t128.5 61q39 0 60.5 -7t37.5 -16l72 70q-6 2 -24.5 13.5t-45.5 21.5t-55.5 19.5t-53.5 9.5q-150 0 -216 -89.5t-66 -279.5v-59h-211v-111z" />
<glyph unicode="&#xfb04;" horiz-adv-x="1818" d="M1526 0h127v1536h-127v-1536zM721 1022h211v-1022h129v1022h235v111h-235v84q0 111 33.5 172t128.5 61q39 0 60.5 -7t37.5 -16l72 70q-6 2 -24.5 13.5t-45.5 21.5t-55.5 19.5t-53.5 9.5q-150 0 -216 -89.5t-66 -279.5v-59h-211v-111zM39 1022h211v-1022h129v1022h235v111 h-235v84q0 111 33.5 172t128.5 61q39 0 60.5 -7t37.5 -16l72 70q-6 2 -24.5 13.5t-45.5 21.5t-55.5 19.5t-53.5 9.5q-150 0 -216 -89.5t-66 -279.5v-59h-211v-111z" />
</font>
</defs>
</svg>
